<svg width="20" height="20" viewBox="0 0 20 20" fill="none" xmlns="http://www.w3.org/2000/svg">
<path fill-rule="evenodd" clip-rule="evenodd" d="M15.2975 4.55C15.2372 4.0309 15.0033 3.5474 14.6337 3.17798C14.264 2.80857 13.7804 2.57494 13.2613 2.515L12.2613 3.515C13.1584 3.93292 13.8797 4.65338 14.2988 5.55L15.2975 4.55ZM5.925 9.85L10.7625 5.015C11.2816 5.07525 11.7651 5.30919 12.1345 5.67883C12.5039 6.04847 12.7376 6.53211 12.7975 7.05125L7.96125 11.8875C7.68478 12.1634 7.32906 12.3461 6.94375 12.41L5.09375 12.7188L5.4025 10.8687C5.46644 10.4834 5.64911 10.1265 5.925 9.85ZM12.15 0.975L9.65 3.475L4.6 8.525C4.0473 9.0776 3.68107 9.78908 3.5525 10.56L3.1 13.275C3.06746 13.4712 3.08221 13.6724 3.14302 13.8617C3.20383 14.0511 3.30896 14.2232 3.44966 14.3638C3.59035 14.5044 3.76257 14.6093 3.95199 14.67C4.14141 14.7306 4.34257 14.7452 4.53875 14.7125L7.25125 14.2625C8.02276 14.1338 8.73473 13.7671 9.2875 13.2138L14.3375 8.16375L16.8375 5.66375C17.0625 5.43875 17.1875 5.135 17.1875 4.8175C17.1877 4.26699 17.0794 3.72184 16.8688 3.21319C16.6583 2.70454 16.3496 2.24236 15.9604 1.85303C15.5711 1.4637 15.109 1.15487 14.6005 0.944159C14.0919 0.733451 13.5468 0.625 12.9963 0.625C12.6788 0.625 12.3737 0.75 12.1487 0.975M3.4375 16.25C3.18886 16.25 2.9504 16.3488 2.77459 16.5246C2.59877 16.7004 2.5 16.9389 2.5 17.1875C2.5 17.4361 2.59877 17.6746 2.77459 17.8504C2.9504 18.0262 3.18886 18.125 3.4375 18.125H16.5625C16.8111 18.125 17.0496 18.0262 17.2254 17.8504C17.4012 17.6746 17.5 17.4361 17.5 17.1875C17.5 16.9389 17.4012 16.7004 17.2254 16.5246C17.0496 16.3488 16.8111 16.25 16.5625 16.25H3.4375Z" fill="#596DFB"/>
</svg>
