<svg width="150" height="150" viewBox="0 0 150 150" fill="none" xmlns="http://www.w3.org/2000/svg">
<g clip-path="url(#clip0_254_587)">
<path d="M91.25 125C92.9076 125 94.4973 125.632 95.6694 126.757C96.8415 127.883 97.5 129.409 97.5 131C97.5 132.591 96.8415 134.117 95.6694 135.243C94.4973 136.368 92.9076 137 91.25 137H78.75C77.0924 137 75.5027 136.368 74.3306 135.243C73.1585 134.117 72.5 132.591 72.5 131C72.5 129.409 73.1585 127.883 74.3306 126.757C75.5027 125.632 77.0924 125 78.75 125H91.25ZM85 17C112.562 17 135 38.258 135 64.598C135 82.634 125.487 95.774 117.625 103.562L115.85 105.26L114.163 106.772L112.587 108.092L110.525 109.712L108.475 111.176C107.25 112.004 106.35 113.15 105.562 114.386L104.656 115.892L103.775 117.404C102.275 119.876 100.537 122 96.8312 122H73.1688C69.4625 122 67.725 119.876 66.2312 117.404L64.9 115.136C63.9938 113.618 62.9938 112.172 61.525 111.176L60.075 110.15L58.8313 109.22L57.4125 108.092L55.8375 106.772L54.15 105.26L52.3687 103.562C44.5125 95.774 35 82.634 35 64.598C35 38.258 57.4375 17 85 17ZM85 29C64.2313 29 47.5 44.99 47.5 64.598C47.5 80.342 57.0813 91.562 63.7063 97.424L65.2375 98.732L66.6125 99.824L68.3 101.072L68.75 101.384C70.7187 102.716 72.1812 104.57 73.5125 106.508L75.8438 110H94.1562L96.4875 106.508C97.8188 104.57 99.2812 102.716 101.25 101.384L102.769 100.292L104.056 99.302L105.512 98.102C112.137 92.456 122.5 80.972 122.5 64.598C122.5 44.99 105.769 29 85 29ZM86.8313 42.758C87.956 41.6819 89.4652 41.0572 91.0524 41.0106C92.6396 40.9641 94.1857 41.4993 95.3767 42.5075C96.5678 43.5157 97.3144 44.9213 97.465 46.4388C97.6156 47.9564 97.1588 49.472 96.1875 50.678L95.6687 51.242L87.5875 59L95.625 66.716C97.9 68.9 98.075 72.338 96.15 74.714L95.625 75.284L83.1687 87.242C82.044 88.3181 80.5348 88.9428 78.9476 88.9894C77.3604 89.0359 75.8143 88.5007 74.6233 87.4925C73.4322 86.4843 72.6856 85.0787 72.535 83.5612C72.3844 82.0436 72.8412 80.528 73.8125 79.322L74.3313 78.758L82.4125 71L74.375 63.284C73.2883 62.2407 72.6354 60.8527 72.5388 59.3802C72.4421 57.9077 72.9083 56.452 73.85 55.286L74.375 54.716L86.8313 42.758Z" fill="#B61143"/>
<path d="M52 101L83 68.5L108.5 91.5L90.5 113L61.5 115.5L52 101Z" fill="white"/>
<path d="M81.25 125C82.9076 125 84.4973 125.658 85.6694 126.831C86.8415 128.003 87.5 129.592 87.5 131.25C87.5 132.908 86.8415 134.497 85.6694 135.669C84.4973 136.842 82.9076 137.5 81.25 137.5H68.75C67.0924 137.5 65.5027 136.842 64.3306 135.669C63.1585 134.497 62.5 132.908 62.5 131.25C62.5 129.592 63.1585 128.003 64.3306 126.831C65.5027 125.658 67.0924 125 68.75 125H81.25ZM75 12.5C102.562 12.5 125 34.6437 125 62.0812C125 80.8688 115.487 94.5562 107.625 102.669L105.85 104.437L104.163 106.012L102.587 107.387L100.525 109.075L98.475 110.6C97.25 111.462 96.35 112.656 95.5625 113.944L94.6562 115.513L93.775 117.087C92.275 119.662 90.5375 121.875 86.8312 121.875H63.1688C59.4625 121.875 57.725 119.662 56.2312 117.087L54.9 114.725C53.9938 113.144 52.9938 111.637 51.525 110.6L50.075 109.531L48.8313 108.563L47.4125 107.387L45.8375 106.012L44.15 104.437L42.3687 102.669C34.5125 94.5562 25 80.8688 25 62.0812C25 34.6437 47.4375 12.5 75 12.5ZM75 25C54.2313 25 37.5 41.6562 37.5 62.0812C37.5 78.4812 47.0813 90.1688 53.7063 96.275L55.2375 97.6375L56.6125 98.775L58.3 100.075L58.75 100.4C60.7187 101.787 62.1812 103.719 63.5125 105.737L65.8438 109.375H84.1562L86.4875 105.737C87.8188 103.719 89.2812 101.787 91.25 100.4L92.7688 99.2625L94.0563 98.2312L95.5125 96.9813C102.137 91.1 112.5 79.1375 112.5 62.0812C112.5 41.6562 95.7688 25 75 25ZM76.8313 39.3313C77.956 38.2103 79.4652 37.5595 81.0524 37.5111C82.6396 37.4626 84.1857 38.0201 85.3767 39.0703C86.5678 40.1205 87.3144 41.5847 87.465 43.1655C87.6156 44.7462 87.1588 46.3251 86.1875 47.5812L85.6687 48.1687L77.5875 56.25L85.625 64.2875C87.9 66.5625 88.075 70.1438 86.15 72.6188L85.625 73.2125L73.1687 85.6687C72.044 86.7897 70.5348 87.4405 68.9476 87.4889C67.3604 87.5374 65.8143 86.9799 64.6233 85.9297C63.4322 84.8795 62.6856 83.4153 62.535 81.8345C62.3844 80.2538 62.8412 78.6749 63.8125 77.4187L64.3313 76.8313L72.4125 68.75L64.375 60.7125C63.2883 59.6257 62.6354 58.1799 62.5388 56.646C62.4421 55.1122 62.9083 53.5958 63.85 52.3812L64.375 51.7875L76.8313 39.3313Z" fill="black"/>
</g>
<defs>
<clipPath id="clip0_254_587">
<rect width="150" height="150" fill="white"/>
</clipPath>
</defs>
</svg>
