<svg width="140" height="140" viewBox="0 0 140 140" fill="none" xmlns="http://www.w3.org/2000/svg">
<path d="M133.594 57.7603C140.885 50.4686 137.56 41.9519 133.594 37.8103L116.094 20.3103C108.744 13.0186 100.285 16.3436 96.1436 20.3103L86.2269 30.2853H71.1186C60.0353 30.2853 53.6186 36.1186 50.3519 42.8269L24.4519 68.7269V92.0603L20.3103 96.1436C13.0186 103.494 16.3436 111.952 20.3103 116.094L37.8103 133.594C40.9603 136.744 44.3436 137.91 47.5519 137.91C51.6936 137.91 55.4853 135.869 57.7603 133.594L73.5103 117.785H94.4519C104.369 117.785 109.385 111.602 111.194 105.535C117.785 103.785 121.402 98.7686 122.86 93.8686C131.902 91.5353 135.285 82.9603 135.285 76.9519V59.4519H131.844L133.594 57.7603ZM123.619 76.9519C123.619 79.5769 122.51 82.7853 117.785 82.7853H111.952V88.6186C111.952 91.2436 110.844 94.4519 106.119 94.4519H100.285V100.285C100.285 102.91 99.1769 106.119 94.4519 106.119H68.7269L49.5936 125.252C47.7853 126.944 46.7353 125.952 46.0936 125.31L28.6519 107.927C26.9603 106.119 27.9519 105.069 28.5936 104.427L36.1186 96.8436V73.5103L47.7853 61.8436V71.1186C47.7853 78.1769 52.4519 88.6186 65.2853 88.6186C78.1186 88.6186 82.7853 78.1769 82.7853 71.1186H123.619V76.9519ZM125.31 49.4769L115.394 59.4519H71.1186V71.1186C71.1186 73.7436 70.0103 76.9519 65.2853 76.9519C60.5603 76.9519 59.4519 73.7436 59.4519 71.1186V53.6186C59.4519 50.9353 60.4436 41.9519 71.1186 41.9519H91.0103L104.31 28.6519C106.119 26.9603 107.169 27.9519 107.81 28.5936L125.252 45.9769C126.944 47.7853 125.952 48.8353 125.31 49.4769Z" fill="#0281C7"/>
<path d="M48.5 66.5L45.5 44L24 63.5V86.5L15 98.5L38.5 125L64 106L93 104L109.5 86.5L124 74.5V58H70V70.5L58 76.5L48.5 66.5Z" fill="white" stroke="black" stroke-width="5"/>
<path d="M25 114.5L64 78.5L72 59H121V78.5L96 102L65.5 105L42.5 125.5L25 114.5Z" fill="#0497E6"/>
<path d="M126.641 50.8084C133.933 43.5167 130.608 35 126.641 30.8584L109.141 13.3584C101.791 6.0667 93.3331 9.3917 89.1914 13.3584L79.2748 23.3334H64.1665C53.0831 23.3334 46.6665 29.1667 43.3998 35.875L17.4998 61.775V85.1084L13.3581 89.1917C6.06646 96.5417 9.39146 105 13.3581 109.142L30.8581 126.642C34.0081 129.792 37.3915 130.958 40.5998 130.958C44.7415 130.958 48.5331 128.917 50.8081 126.642L66.5581 110.833H87.4998C97.4165 110.833 102.433 104.65 104.241 98.5834C110.833 96.8334 114.45 91.8167 115.908 86.9167C124.95 84.5834 128.333 76.0084 128.333 70V52.5H124.891L126.641 50.8084ZM116.666 70C116.666 72.625 115.558 75.8334 110.833 75.8334H105V81.6667C105 84.2917 103.891 87.5 99.1664 87.5H93.3331V93.3334C93.3331 95.9584 92.2248 99.1667 87.4998 99.1667H61.7748L42.6414 118.3C40.8331 119.992 39.7831 119 39.1415 118.358L21.6998 100.975C20.0081 99.1667 20.9998 98.1167 21.6415 97.475L29.1665 89.8917V66.5584L40.8331 54.8917V64.1667C40.8331 71.225 45.4998 81.6667 58.3331 81.6667C71.1665 81.6667 75.8331 71.225 75.8331 64.1667H116.666V70ZM118.358 42.525L108.441 52.5H64.1665V64.1667C64.1665 66.7917 63.0581 70 58.3331 70C53.6081 70 52.4998 66.7917 52.4998 64.1667V46.6667C52.4998 43.9834 53.4915 35 64.1665 35H84.0581L97.3581 21.7C99.1665 20.0084 100.216 21 100.858 21.6417L118.3 39.025C119.991 40.8334 119 41.8834 118.358 42.525Z" fill="black"/>
</svg>
