<svg width="140" height="140" viewBox="0 0 140 140" fill="none" xmlns="http://www.w3.org/2000/svg">
<path d="M67.2863 108.378L51.5242 100.27M51.5242 100.27L20 116.486V46.2162L51.5242 30M51.5242 100.27V30M51.5242 30L83.0484 46.2162M83.0484 46.2162L114.573 30V73.2432M83.0484 46.2162V81.3514M104.07 121.892C101.283 121.892 98.6101 120.753 96.6394 118.725C94.6688 116.698 93.5617 113.948 93.5617 111.081C93.5617 108.214 94.6688 105.464 96.6394 103.437C98.6101 101.409 101.283 100.27 104.07 100.27M104.07 121.892C106.857 121.892 109.529 120.753 111.5 118.725C113.471 116.698 114.578 113.948 114.578 111.081C114.578 108.214 113.471 105.464 111.5 103.437C109.529 101.409 106.857 100.27 104.07 100.27M104.07 121.892V130M104.07 100.27V92.1622M119.995 101.622L113.17 105.676M94.975 116.486L88.1448 120.541M88.1448 101.622L94.975 105.676M113.17 116.486L120 120.541" stroke="#671FE2" stroke-width="14" stroke-linecap="round" stroke-linejoin="round"/>
<path d="M93.5 107L92 96.5L103 91.5L111.5 102L106.5 113L97.5 111.5L93.5 107Z" fill="white" stroke="black"/>
<path d="M18 38.5L45.5 24L48 91.5L18 106.5V38.5Z" fill="white" stroke="#274FD9" stroke-width="5" stroke-linecap="round"/>
<path d="M20 70L49.5 57L47.5 25L16.5 37L20 70Z" fill="#5E20C9"/>
<path d="M21.2407 89.97L51.0632 75.4238L45.7108 66.7376L14.2037 81.5348L21.2407 89.97Z" fill="#5E20C9"/>
<path d="M63.7863 99.7119L48.0242 91.6038M48.0242 91.6038L16.5 107.82V37.5497L48.0242 21.3335M48.0242 91.6038V21.3335M48.0242 21.3335L79.5484 37.5497M79.5484 37.5497L111.073 21.3335V64.5767M79.5484 37.5497V72.6848M100.57 113.225C97.7829 113.225 95.1101 112.086 93.1394 110.059C91.1688 108.032 90.0617 105.282 90.0617 102.415C90.0617 99.5474 91.1688 96.7976 93.1394 94.7702C95.1101 92.7428 97.7829 91.6038 100.57 91.6038M100.57 113.225C103.357 113.225 106.029 112.086 108 110.059C109.971 108.032 111.078 105.282 111.078 102.415C111.078 99.5474 109.971 96.7976 108 94.7702C106.029 92.7428 103.357 91.6038 100.57 91.6038M100.57 113.225V121.333M100.57 91.6038V83.4957M116.495 92.9551L109.67 97.0092M91.475 107.82L84.6448 111.874M84.6448 92.9551L91.475 97.0092M109.67 107.82L116.5 111.874" stroke="black" stroke-width="11" stroke-linecap="round" stroke-linejoin="round"/>
</svg>
