<svg width="16" height="16" viewBox="0 0 16 16" fill="none" xmlns="http://www.w3.org/2000/svg">
<path d="M14.6668 8.00016C14.6668 11.6822 11.6822 14.6668 8.00016 14.6668C4.31816 14.6668 1.3335 11.6822 1.3335 8.00016C1.3335 4.31816 4.31816 1.3335 8.00016 1.3335V2.66683C6.72318 2.66698 5.48864 3.1253 4.52093 3.95849C3.55322 4.79168 2.91657 5.94443 2.72672 7.20721C2.53686 8.47 2.80639 9.75899 3.48632 10.8399C4.16624 11.9208 5.21144 12.7219 6.43192 13.0975C7.6524 13.4732 8.96714 13.3984 10.1372 12.8869C11.3072 12.3754 12.2549 11.461 12.808 10.31C13.361 9.15899 13.4827 7.84776 13.151 6.61463C12.8192 5.38149 12.0561 4.30832 11.0002 3.59016V5.3335H9.66683V1.3335H13.6668V2.66683H12.0002C12.8285 3.28745 13.5008 4.0926 13.9637 5.01839C14.4266 5.94417 14.6673 6.9651 14.6668 8.00016Z" fill="#848484"/>
</svg>
