<svg width="160" height="150" viewBox="0 0 160 150" fill="none" xmlns="http://www.w3.org/2000/svg">
<g clip-path="url(#clip0_254_574)">
<path fill-rule="evenodd" clip-rule="evenodd" d="M53.3133 22.0015C52.4137 21.9828 51.5193 22.135 50.6841 22.449C49.8488 22.7629 49.09 23.2322 48.4534 23.8284C47.8168 24.4247 47.3155 25.1356 46.9798 25.9183C46.6441 26.701 46.4809 27.5394 46.5 28.3828C46.6067 32.7953 47.7467 39.0078 50.9467 45.364C52.7267 48.9015 55.0133 52.0765 57.88 54.764C59.7511 56.514 61.8244 58.039 64.1 59.339H46.3333C42.7971 59.339 39.4057 60.656 36.9052 63.0002C34.4048 65.3444 33 68.5238 33 71.839V84.339C33.0001 86.5503 33.6258 88.7219 34.8134 90.6324C36.001 92.5429 37.7079 94.1239 39.76 95.2141C40.6867 118.12 48.26 134.077 52.0067 140.652C54.34 144.752 58.8267 146.839 63.2333 146.839H109.433C113.833 146.839 118.327 144.752 120.66 140.652C124.407 134.077 131.98 118.12 132.907 95.2141C134.959 94.1239 136.666 92.5429 137.853 90.6324C139.041 88.7219 139.667 86.5503 139.667 84.339V71.839C139.667 68.5238 138.262 65.3444 135.761 63.0002C133.261 60.656 129.87 59.339 126.333 59.339H113.68C115.129 57.9224 116.38 56.3599 117.433 54.6515C118.838 52.3515 119.838 49.8745 120.433 47.2203C121.587 42.2328 121.347 37.1078 120.293 32.214L119.333 28.6515C118.821 27.1914 117.752 25.9596 116.331 25.1917C114.911 24.4238 113.238 24.1737 111.633 24.489C107.157 25.44 102.881 27.0833 98.98 29.3515C94.6067 31.8703 91.0133 35.0515 88.5667 39.0265C88.2378 39.564 87.9311 40.1099 87.6467 40.664C86.0274 37.7165 83.9365 35.0186 81.4467 32.664C78.5334 29.9697 75.143 27.7704 71.4267 26.164C65.7554 23.6316 59.5909 22.215 53.3133 22.0015ZM61.3333 35.9015C62.84 36.339 64.3133 36.839 65.7333 37.464C68.1867 38.5515 70.3067 39.8953 72.0267 41.5078C73.74 43.114 75.1733 45.1015 76.3333 47.4015C76.96 48.7578 77.5333 50.1078 77.9933 51.5265C76.4892 51.1035 75.0189 50.5814 73.5933 49.964C71.2632 48.9713 69.1357 47.605 67.3067 45.9265C65.5157 44.2099 64.0583 42.2132 63 40.0265C62.3415 38.6901 61.7846 37.3116 61.3333 35.9015ZM107.813 39.0265L107.853 40.464C107.853 41.8974 107.704 43.2724 107.407 44.589C107.115 45.9262 106.602 47.2125 105.887 48.4015C104.653 50.4015 102.653 52.1765 100.04 53.6828L98.18 54.6453L98.1467 53.2203C98.1467 51.7911 98.2978 50.414 98.6 49.089C98.9244 47.6682 99.4289 46.3974 100.113 45.2765C101.347 43.2765 103.347 41.5078 105.96 39.9953L107.813 39.0265ZM53.1867 96.8391H119.48C118.32 115.733 112.193 128.87 109.14 134.339H63.5267C60.4733 128.87 54.34 115.733 53.1867 96.8391ZM126.333 84.339H46.3333V71.839H126.333V84.339Z" fill="#049B5C"/>
<path d="M120 83L39.5 80.5L42.5 108L52.5 130L83 132.5L108.5 130L118 108L120 83Z" fill="white"/>
<path d="M39.5 80.5L120 83L128.5 67L125.5 55H36L39.5 80.5Z" fill="#319A79"/>
<path d="M120 83L39.5 80.5M120 83L118 108L108.5 130L83 132.5L52.5 130L42.5 108L39.5 80.5M120 83L128.5 67L125.5 55H36L39.5 80.5" stroke="black"/>
<path d="M96.5 85.5C97.8668 91.5531 100.254 94.7997 100 101C99.785 106.253 96.5 114 96.5 114L90.5 127.5L110.5 124.5L118.5 104V85.5H96.5Z" fill="#319A79"/>
<path fill-rule="evenodd" clip-rule="evenodd" d="M46.9798 12.6627C46.0802 12.6439 45.1858 12.7961 44.3506 13.1101C43.5153 13.4241 42.7565 13.8933 42.1199 14.4896C41.4833 15.0858 40.982 15.7967 40.6463 16.5794C40.3106 17.3621 40.1474 18.2005 40.1665 19.0439C40.2732 23.4564 41.4132 29.6689 44.6132 36.0252C46.3932 39.5627 48.6798 42.7377 51.5465 45.4252C53.4176 47.1752 55.4909 48.7002 57.7665 50.0002H39.9998C36.4636 50.0002 33.0722 51.3171 30.5717 53.6613C28.0713 56.0056 26.6665 59.185 26.6665 62.5002V75.0002C26.6666 77.2114 27.2923 79.3831 28.4799 81.2936C29.6675 83.2041 31.3744 84.785 33.4265 85.8752C34.3532 108.781 41.9265 124.738 45.6732 131.313C48.0065 135.413 52.4932 137.5 56.8998 137.5H103.1C107.5 137.5 111.993 135.413 114.326 131.313C118.073 124.738 125.646 108.781 126.573 85.8752C128.625 84.785 130.332 83.2041 131.52 81.2936C132.707 79.3831 133.333 77.2114 133.333 75.0002V62.5002C133.333 59.185 131.928 56.0056 129.428 53.6613C126.927 51.3171 123.536 50.0002 120 50.0002H107.346C108.795 48.5835 110.047 47.021 111.1 45.3127C112.504 43.0127 113.504 40.5356 114.1 37.8814C115.253 32.8939 115.013 27.7689 113.96 22.8752L113 19.3127C112.487 17.8525 111.418 16.6208 109.998 15.8529C108.577 15.085 106.905 14.8348 105.3 15.1502C100.823 16.1011 96.547 17.7444 92.6465 20.0127C88.2732 22.5314 84.6798 25.7127 82.2332 29.6877C81.9043 30.2252 81.5976 30.771 81.3132 31.3252C79.6939 28.3776 77.603 25.6798 75.1132 23.3252C72.1999 20.6309 68.8095 18.4315 65.0932 16.8252C59.4219 14.2928 53.2574 12.8761 46.9798 12.6627ZM54.9998 26.5627C56.5065 27.0002 57.9798 27.5002 59.3998 28.1252C61.8532 29.2127 63.9732 30.5564 65.6932 32.1689C67.4065 33.7752 68.8398 35.7627 69.9998 38.0627C70.6265 39.4189 71.1998 40.7689 71.6598 42.1877C70.1557 41.7647 68.6854 41.2425 67.2598 40.6252C64.9297 39.6324 62.8023 38.2661 60.9732 36.5877C59.1822 34.871 57.7248 32.8744 56.6665 30.6877C56.008 29.3512 55.4511 27.9728 54.9998 26.5627ZM101.48 29.6877L101.52 31.1252C101.52 32.5585 101.371 33.9335 101.073 35.2502C100.781 36.5874 100.268 37.8737 99.5532 39.0627C98.3198 41.0627 96.3198 42.8377 93.7065 44.3439L91.8465 45.3064L91.8132 43.8814C91.8132 42.4523 91.9643 41.0752 92.2665 39.7502C92.591 38.3293 93.0954 37.0585 93.7798 35.9377C95.0132 33.9377 97.0132 32.1689 99.6265 30.6564L101.48 29.6877ZM46.8532 87.5002H113.146C111.986 106.394 105.86 119.531 102.806 125H57.1932C54.1398 119.531 48.0065 106.394 46.8532 87.5002ZM120 75.0002H39.9998V62.5002H120V75.0002Z" fill="black"/>
<path d="M97 103C99.7614 103 102 100.761 102 98C102 95.2386 99.7614 93 97 93V103ZM97 93H39V103H97V93Z" fill="black"/>
</g>
<defs>
<clipPath id="clip0_254_574">
<rect width="160" height="150" fill="white"/>
</clipPath>
</defs>
</svg>
