<svg width="16" height="17" viewBox="0 0 16 17" fill="none" xmlns="http://www.w3.org/2000/svg">
<path d="M14.364 5.83543C14.1764 5.64796 13.9221 5.54265 13.657 5.54265C13.3918 5.54265 13.1375 5.64796 12.95 5.83543L7.99995 10.7854L3.04995 5.83543C2.86135 5.65327 2.60875 5.55248 2.34655 5.55476C2.08435 5.55704 1.83354 5.66221 1.64813 5.84761C1.46272 6.03302 1.35756 6.28383 1.35528 6.54603C1.353 6.80823 1.45379 7.06083 1.63595 7.24943L7.29295 12.9064C7.48048 13.0939 7.73479 13.1992 7.99995 13.1992C8.26512 13.1992 8.51942 13.0939 8.70695 12.9064L14.364 7.24943C14.5514 7.0619 14.6567 6.8076 14.6567 6.54243C14.6567 6.27727 14.5514 6.02296 14.364 5.83543Z" fill="#BABABA"/>
</svg>
