<svg width="20" height="21" viewBox="0 0 20 21" fill="none" xmlns="http://www.w3.org/2000/svg">
<path d="M15.0499 2.54248C15.4514 2.54251 15.8393 2.68743 16.1424 2.95061C16.4456 3.21378 16.6435 3.57753 16.6999 3.97498L16.7141 4.10498L17.4433 15.7716C17.4708 16.2094 17.3247 16.6404 17.0365 16.9711C16.7484 17.3018 16.3415 17.5056 15.9041 17.5383L15.7791 17.5425H4.2216C3.78301 17.5425 3.36209 17.3697 3.0501 17.0614C2.73811 16.7532 2.56019 16.3344 2.55493 15.8958L2.55743 15.7716L3.2866 4.10498C3.31168 3.70421 3.48061 3.32596 3.76232 3.0398C4.04404 2.75365 4.4196 2.57882 4.81993 2.54748L4.94993 2.54248H15.0499ZM15.0499 4.20915H4.94993L4.22076 15.8758H15.7791L15.0499 4.20915ZM12.4999 5.87581C12.7209 5.87581 12.9329 5.96361 13.0892 6.11989C13.2455 6.27617 13.3333 6.48813 13.3333 6.70915C13.3333 7.5932 12.9821 8.44105 12.357 9.06617C11.7318 9.69129 10.884 10.0425 9.99993 10.0425C9.11588 10.0425 8.26803 9.69129 7.64291 9.06617C7.01779 8.44105 6.6666 7.5932 6.6666 6.70915C6.6666 6.48813 6.7544 6.27617 6.91068 6.11989C7.06696 5.96361 7.27892 5.87581 7.49993 5.87581C7.72095 5.87581 7.93291 5.96361 8.08919 6.11989C8.24547 6.27617 8.33326 6.48813 8.33326 6.70915C8.33133 7.14163 8.49759 7.55794 8.79691 7.87011C9.09624 8.18228 9.5052 8.36587 9.93738 8.3821C10.3696 8.39833 10.7911 8.24592 11.113 7.95707C11.4349 7.66822 11.6319 7.26556 11.6624 6.83415L11.6666 6.70915C11.6666 6.48813 11.7544 6.27617 11.9107 6.11989C12.067 5.96361 12.2789 5.87581 12.4999 5.87581Z" fill="#BABABA"/>
</svg>
