<svg width="20" height="21" viewBox="0 0 20 21" fill="none" xmlns="http://www.w3.org/2000/svg">
<path d="M15.0499 3.04248C15.4514 3.04251 15.8393 3.18743 16.1424 3.45061C16.4456 3.71378 16.6435 4.07753 16.6999 4.47498L16.7141 4.60498L17.4433 16.2716C17.4708 16.7094 17.3247 17.1404 17.0365 17.4711C16.7484 17.8018 16.3415 18.0056 15.9041 18.0383L15.7791 18.0425H4.2216C3.78301 18.0425 3.36209 17.8697 3.0501 17.5614C2.73811 17.2532 2.56019 16.8344 2.55493 16.3958L2.55743 16.2716L3.2866 4.60498C3.31168 4.20421 3.48061 3.82596 3.76232 3.5398C4.04404 3.25365 4.4196 3.07882 4.81993 3.04748L4.94993 3.04248H15.0499ZM15.0499 4.70915H4.94993L4.22076 16.3758H15.7791L15.0499 4.70915ZM12.4999 6.37581C12.7209 6.37581 12.9329 6.46361 13.0892 6.61989C13.2455 6.77617 13.3333 6.98813 13.3333 7.20915C13.3333 8.0932 12.9821 8.94105 12.357 9.56617C11.7318 10.1913 10.884 10.5425 9.99993 10.5425C9.11588 10.5425 8.26803 10.1913 7.64291 9.56617C7.01779 8.94105 6.6666 8.0932 6.6666 7.20915C6.6666 6.98813 6.7544 6.77617 6.91068 6.61989C7.06696 6.46361 7.27892 6.37581 7.49993 6.37581C7.72095 6.37581 7.93291 6.46361 8.08919 6.61989C8.24547 6.77617 8.33326 6.98813 8.33326 7.20915C8.33133 7.64163 8.49759 8.05794 8.79691 8.37011C9.09624 8.68228 9.5052 8.86587 9.93738 8.8821C10.3696 8.89833 10.7911 8.74592 11.113 8.45707C11.4349 8.16822 11.6319 7.76556 11.6624 7.33415L11.6666 7.20915C11.6666 6.98813 11.7544 6.77617 11.9107 6.61989C12.067 6.46361 12.2789 6.37581 12.4999 6.37581Z" fill="#BABABA"/>
</svg>
