<svg width="20" height="21" viewBox="0 0 20 21" fill="none" xmlns="http://www.w3.org/2000/svg">
<path d="M7.49996 13.5177L4.60829 10.626C4.45248 10.4702 4.24115 10.3826 4.02079 10.3826C3.80044 10.3826 3.58911 10.4702 3.43329 10.626C3.27748 10.7818 3.18994 10.9931 3.18994 11.2135C3.18994 11.3226 3.21143 11.4306 3.25319 11.5315C3.29494 11.6323 3.35614 11.7238 3.43329 11.801L6.91663 15.2843C7.24163 15.6093 7.76663 15.6093 8.09163 15.2843L16.9083 6.46767C17.0641 6.31185 17.1516 6.10052 17.1516 5.88017C17.1516 5.65981 17.0641 5.44848 16.9083 5.29267C16.7525 5.13685 16.5411 5.04932 16.3208 5.04932C16.1004 5.04932 15.8891 5.13685 15.7333 5.29267L7.49996 13.5177Z" fill="#BABABA"/>
</svg>
