<svg width="20" height="21" viewBox="0 0 20 21" fill="none" xmlns="http://www.w3.org/2000/svg">
  <path
    d="M7.49996 13.9752L4.60829 11.0835C4.45248 10.9277 4.24115 10.8402 4.02079 10.8402C3.80044 10.8402 3.58911 10.9277 3.43329 11.0835C3.27748 11.2393 3.18994 11.4507 3.18994 11.671C3.18994 11.7801 3.21143 11.8882 3.25319 11.989C3.29494 12.0898 3.35614 12.1814 3.43329 12.2585L6.91663 15.7419C7.24163 16.0669 7.76663 16.0669 8.09163 15.7419L16.9083 6.92519C17.0641 6.76937 17.1516 6.55804 17.1516 6.33769C17.1516 6.11733 17.0641 5.906 16.9083 5.75019C16.7525 5.59437 16.5411 5.50684 16.3208 5.50684C16.1004 5.50684 15.8891 5.59437 15.7333 5.75019L7.49996 13.9752Z"
    fill="#1384EE"
  />
</svg>
