<svg width="20" height="20" viewBox="0 0 20 20" fill="none" xmlns="http://www.w3.org/2000/svg">
<path d="M14.1666 7.50008V5.83341C14.1666 4.72835 13.7276 3.66854 12.9462 2.88714C12.1648 2.10573 11.105 1.66675 9.99992 1.66675C8.89485 1.66675 7.83504 2.10573 7.05364 2.88714C6.27224 3.66854 5.83325 4.72835 5.83325 5.83341V7.50008C5.17021 7.50008 4.53433 7.76347 4.06549 8.23231C3.59664 8.70115 3.33325 9.33704 3.33325 10.0001V15.8334C3.33325 16.4965 3.59664 17.1323 4.06549 17.6012C4.53433 18.07 5.17021 18.3334 5.83325 18.3334H14.1666C14.8296 18.3334 15.4655 18.07 15.9344 17.6012C16.4032 17.1323 16.6666 16.4965 16.6666 15.8334V10.0001C16.6666 9.33704 16.4032 8.70115 15.9344 8.23231C15.4655 7.76347 14.8296 7.50008 14.1666 7.50008ZM7.49992 5.83341C7.49992 5.17037 7.76331 4.53449 8.23215 4.06565C8.70099 3.59681 9.33688 3.33341 9.99992 3.33341C10.663 3.33341 11.2988 3.59681 11.7677 4.06565C12.2365 4.53449 12.4999 5.17037 12.4999 5.83341V7.50008H7.49992V5.83341ZM14.9999 15.8334C14.9999 16.0544 14.9121 16.2664 14.7558 16.4227C14.5996 16.579 14.3876 16.6667 14.1666 16.6667H5.83325C5.61224 16.6667 5.40028 16.579 5.244 16.4227C5.08772 16.2664 4.99992 16.0544 4.99992 15.8334V10.0001C4.99992 9.77907 5.08772 9.56711 5.244 9.41083C5.40028 9.25455 5.61224 9.16675 5.83325 9.16675H14.1666C14.3876 9.16675 14.5996 9.25455 14.7558 9.41083C14.9121 9.56711 14.9999 9.77907 14.9999 10.0001V15.8334Z" fill="#BABABA"/>
</svg>
