<svg width="188" height="46" viewBox="0 0 188 46" fill="none" xmlns="http://www.w3.org/2000/svg">
<path d="M49.1364 12.7151H52.3409L58.75 23.5023H59.0208L65.4299 12.7151H68.6345L60.2846 26.3006V35.824H57.4863V26.3006L49.1364 12.7151ZM90.6657 24.2696C90.6657 26.7068 90.2257 28.8131 89.3455 30.5884C88.4654 32.3637 87.2581 33.7327 85.7235 34.6956C84.1889 35.6585 82.4362 36.1399 80.4653 36.1399C78.4945 36.1399 76.7417 35.6585 75.2072 34.6956C73.6726 33.7327 72.4653 32.3637 71.5851 30.5884C70.705 28.8131 70.265 26.7068 70.265 24.2696C70.265 21.8323 70.705 19.726 71.5851 17.9507C72.4653 16.1754 73.6726 14.8064 75.2072 13.8435C76.7417 12.8806 78.4945 12.3992 80.4653 12.3992C82.4362 12.3992 84.1889 12.8806 85.7235 13.8435C87.2581 14.8064 88.4654 16.1754 89.3455 17.9507C90.2257 19.726 90.6657 21.8323 90.6657 24.2696ZM87.9577 24.2696C87.9577 22.2686 87.6229 20.5798 86.9534 19.2032C86.2914 17.8266 85.3925 16.7848 84.2566 16.0777C83.1283 15.3705 81.8645 15.017 80.4653 15.017C79.0662 15.017 77.7986 15.3705 76.6628 16.0777C75.5344 16.7848 74.6355 17.8266 73.966 19.2032C73.304 20.5798 72.973 22.2686 72.973 24.2696C72.973 26.2705 73.304 27.9593 73.966 29.3359C74.6355 30.7125 75.5344 31.7544 76.6628 32.4615C77.7986 33.1686 79.0662 33.5221 80.4653 33.5221C81.8645 33.5221 83.1283 33.1686 84.2566 32.4615C85.3925 31.7544 86.2914 30.7125 86.9534 29.3359C87.6229 27.9593 87.9577 26.2705 87.9577 24.2696ZM110.536 12.7151H113.334V28.0157C113.334 29.5954 112.962 31.0059 112.217 32.2471C111.48 33.4807 110.438 34.4549 109.092 35.1695C107.745 35.8766 106.166 36.2302 104.353 36.2302C102.54 36.2302 100.96 35.8766 99.6136 35.1695C98.2671 34.4549 97.2215 33.4807 96.4768 32.2471C95.7396 31.0059 95.371 29.5954 95.371 28.0157V12.7151H98.1693V27.79C98.1693 28.9184 98.4176 29.9226 98.914 30.8028C99.4105 31.6754 100.118 32.3637 101.035 32.8677C101.961 33.3641 103.066 33.6124 104.353 33.6124C105.639 33.6124 106.745 33.3641 107.67 32.8677C108.595 32.3637 109.302 31.6754 109.791 30.8028C110.288 29.9226 110.536 28.9184 110.536 27.79V12.7151ZM137.247 12.7151V35.824H134.539L121.947 17.6799H121.721V35.824H118.923V12.7151H121.631L134.268 30.9043H134.494V12.7151H137.247ZM158.644 19.9367C158.396 19.1769 158.068 18.4961 157.662 17.8943C157.263 17.285 156.786 16.766 156.229 16.3372C155.68 15.9084 155.056 15.5812 154.356 15.3555C153.656 15.1298 152.889 15.017 152.054 15.017C150.685 15.017 149.44 15.3705 148.319 16.0777C147.198 16.7848 146.307 17.8266 145.645 19.2032C144.983 20.5798 144.652 22.2686 144.652 24.2696C144.652 26.2705 144.987 27.9593 145.656 29.3359C146.326 30.7125 147.232 31.7544 148.376 32.4615C149.519 33.1686 150.805 33.5221 152.235 33.5221C153.559 33.5221 154.725 33.24 155.733 32.6758C156.748 32.1041 157.538 31.2992 158.102 30.2612C158.674 29.2155 158.96 27.9856 158.96 26.5714L159.817 26.752H152.867V24.2696H161.668V26.752C161.668 28.6551 161.262 30.3101 160.449 31.7167C159.644 33.1234 158.531 34.2142 157.109 34.989C155.695 35.7563 154.07 36.1399 152.235 36.1399C150.189 36.1399 148.391 35.6585 146.841 34.6956C145.299 33.7327 144.096 32.3637 143.23 30.5884C142.373 28.8131 141.944 26.7068 141.944 24.2696C141.944 22.4416 142.189 20.798 142.678 19.3386C143.174 17.8718 143.874 16.623 144.776 15.5925C145.679 14.5619 146.747 13.772 147.981 13.2229C149.214 12.6738 150.572 12.3992 152.054 12.3992C153.273 12.3992 154.409 12.5835 155.462 12.9521C156.523 13.3132 157.467 13.8285 158.294 14.4979C159.129 15.1599 159.825 15.9535 160.382 16.8788C160.938 17.7965 161.322 18.8158 161.532 19.9367H158.644Z" fill="black"/>
<path d="M183.987 26.515L167.334 34.9965V31.6867L180.108 25.5324L180.005 25.7392V25.2221L180.108 25.4289L167.334 19.2747V15.9648L183.987 24.4463V26.515Z" fill="#1384EE"/>
<path d="M48.8591 33.0585V35.8089L27.1946 27.854V25.1459L48.8591 17.191V19.9413L30.622 26.4153V26.5846L48.8591 33.0585ZM40.3964 32.043V20.9569H42.7237V32.043H40.3964Z" fill="#1384EE"/>
<path d="M9.92958 35.7959H2.79834V12.6871H10.2455C12.4872 12.6871 14.4054 13.1497 16.0002 14.0749C17.5949 14.9927 18.8173 16.3129 19.6673 18.0355C20.5174 19.7506 20.9424 21.8042 20.9424 24.1963C20.9424 26.6035 20.5136 28.6759 19.6561 30.4136C18.7985 32.1438 17.5498 33.4752 15.9099 34.408C14.27 35.3333 12.2766 35.7959 9.92958 35.7959ZM5.59667 33.3135H9.74904C11.6597 33.3135 13.2432 32.9449 14.4994 32.2077C15.7557 31.4705 16.6922 30.4211 17.3091 29.0596C17.9259 27.698 18.2343 26.0769 18.2343 24.1963C18.2343 22.3308 17.9297 20.7248 17.3203 19.3782C16.711 18.0242 15.8008 16.9861 14.5897 16.264C13.3786 15.5343 11.8704 15.1695 10.065 15.1695H5.59667V33.3135Z" fill="black"/>
</svg>
