<svg width="20" height="21" viewBox="0 0 20 21" fill="none" xmlns="http://www.w3.org/2000/svg">
<path d="M4.16675 17.2091V3.87581C4.16675 3.6548 4.25455 3.44284 4.41083 3.28656C4.56711 3.13028 4.77907 3.04248 5.00008 3.04248H10.1434C10.5854 3.04257 11.0093 3.21823 11.3217 3.53081L15.3451 7.55415C15.6577 7.86663 15.8333 8.29049 15.8334 8.73248V17.2091C15.8334 17.4302 15.7456 17.6421 15.5893 17.7984C15.4331 17.9547 15.2211 18.0425 15.0001 18.0425H5.00008C4.77907 18.0425 4.56711 17.9547 4.41083 17.7984C4.25455 17.6421 4.16675 17.4302 4.16675 17.2091Z" stroke="#BABABA" stroke-width="1.5" stroke-linejoin="round"/>
<path d="M10 3.04248V8.04248C10 8.26349 10.0878 8.47546 10.2441 8.63174C10.4004 8.78802 10.6123 8.87581 10.8333 8.87581H15.8333" stroke="#BABABA" stroke-width="1.5" stroke-linejoin="round"/>
</svg>
