<svg width="20" height="21" viewBox="0 0 20 21" fill="none" xmlns="http://www.w3.org/2000/svg">
<path d="M10 3.37565C9.22645 3.37565 8.48459 3.68294 7.93761 4.22992C7.39062 4.7769 7.08333 5.51877 7.08333 6.29232C7.08333 7.06587 7.39062 7.80773 7.93761 8.35471C8.48459 8.90169 9.22645 9.20898 10 9.20898C10.7735 9.20898 11.5154 8.90169 12.0624 8.35471C12.6094 7.80773 12.9167 7.06587 12.9167 6.29232C12.9167 5.51877 12.6094 4.7769 12.0624 4.22992C11.5154 3.68294 10.7735 3.37565 10 3.37565ZM5.41667 6.29232C5.41667 5.07674 5.89955 3.91095 6.75909 3.05141C7.61864 2.19187 8.78442 1.70898 10 1.70898C11.2156 1.70898 12.3814 2.19187 13.2409 3.05141C14.1004 3.91095 14.5833 5.07674 14.5833 6.29232C14.5833 7.50789 14.1004 8.67368 13.2409 9.53322C12.3814 10.3928 11.2156 10.8757 10 10.8757C8.78442 10.8757 7.61864 10.3928 6.75909 9.53322C5.89955 8.67368 5.41667 7.50789 5.41667 6.29232ZM2.5 15.8757C2.5 14.7706 2.93899 13.7108 3.72039 12.9294C4.50179 12.148 5.5616 11.709 6.66667 11.709H13.3333C14.4384 11.709 15.4982 12.148 16.2796 12.9294C17.061 13.7108 17.5 14.7706 17.5 15.8757V18.3757H2.5V15.8757ZM6.66667 13.3757C6.00363 13.3757 5.36774 13.639 4.8989 14.1079C4.43006 14.5767 4.16667 15.2126 4.16667 15.8757V16.709H15.8333V15.8757C15.8333 15.2126 15.5699 14.5767 15.1011 14.1079C14.6323 13.639 13.9964 13.3757 13.3333 13.3757H6.66667Z" fill="#BABABA"/>
</svg>
