<svg width="20" height="21" viewBox="0 0 20 21" fill="none" xmlns="http://www.w3.org/2000/svg">
<path d="M9.5 3.76454C8.77802 3.76454 8.08561 4.05134 7.5751 4.56186C7.06458 5.07238 6.77778 5.76478 6.77778 6.48676C6.77778 7.20874 7.06458 7.90115 7.5751 8.41166C8.08561 8.92218 8.77802 9.20898 9.5 9.20898C10.222 9.20898 10.9144 8.92218 11.4249 8.41166C11.9354 7.90115 12.2222 7.20874 12.2222 6.48676C12.2222 5.76478 11.9354 5.07238 11.4249 4.56186C10.9144 4.05134 10.222 3.76454 9.5 3.76454ZM5.22222 6.48676C5.22222 5.35222 5.67291 4.26416 6.47515 3.46192C7.27739 2.65968 8.36546 2.20898 9.5 2.20898C10.6345 2.20898 11.7226 2.65968 12.5248 3.46192C13.3271 4.26416 13.7778 5.35222 13.7778 6.48676C13.7778 7.6213 13.3271 8.70937 12.5248 9.51161C11.7226 10.3138 10.6345 10.7645 9.5 10.7645C8.36546 10.7645 7.27739 10.3138 6.47515 9.51161C5.67291 8.70937 5.22222 7.6213 5.22222 6.48676ZM2.5 15.4312C2.5 14.3998 2.90972 13.4107 3.63903 12.6813C4.36834 11.952 5.35749 11.5423 6.38889 11.5423H12.6111C13.6425 11.5423 14.6317 11.952 15.361 12.6813C16.0903 13.4107 16.5 14.3998 16.5 15.4312V17.7645H2.5V15.4312ZM6.38889 13.0979C5.77005 13.0979 5.17656 13.3437 4.73897 13.7813C4.30139 14.2189 4.05556 14.8124 4.05556 15.4312V16.209H14.9444V15.4312C14.9444 14.8124 14.6986 14.2189 14.261 13.7813C13.8234 13.3437 13.2299 13.0979 12.6111 13.0979H6.38889Z" fill="#BABABA"/>
</svg>
