<svg width="28" height="28" viewBox="0 0 28 28" fill="none" xmlns="http://www.w3.org/2000/svg">
<rect width="28" height="28" rx="14" fill="#92CF93"/>
<rect x="2" y="2" width="24" height="24" rx="12" fill="#F6F8FE"/>
<path d="M9.8335 20.6668H18.1668M12.3335 20.6668C16.9168 18.5835 13.0002 15.3335 14.8335 12.3335" stroke="#9DD327" stroke-width="1.5" stroke-linecap="round" stroke-linejoin="round"/>
<path d="M11.9168 11.8335C12.8335 12.5002 13.4168 13.6668 13.8335 14.9168C12.1668 15.2502 10.9168 15.2502 9.8335 14.6668C8.8335 14.1668 7.91683 13.0835 7.3335 11.1668C9.66683 10.7502 11.0002 11.1668 11.9168 11.8335ZM15.7502 9.00016C15.1148 9.99313 14.7952 11.1553 14.8335 12.3335C16.4168 12.2502 17.5835 11.8335 18.4168 11.1668C19.2502 10.3335 19.7502 9.25016 19.8335 7.3335C17.5835 7.41683 16.5002 8.16683 15.7502 9.00016Z" stroke="#9DD327" stroke-width="1.5" stroke-linecap="round" stroke-linejoin="round"/>
</svg>
