<svg width="28" height="28" viewBox="0 0 28 28" fill="none" xmlns="http://www.w3.org/2000/svg">
<rect width="28" height="28" rx="14" fill="#5BA4E9"/>
<rect x="2" y="2" width="24" height="24" rx="12" fill="#F6F8FE"/>
<path d="M13.8887 19.1367C11.8379 19.1367 10.375 18.0293 10.3203 16.416H11.8516C11.9062 17.291 12.7676 17.8379 13.875 17.8379C15.0645 17.8379 15.9395 17.1816 15.9395 16.2246C15.9395 15.2539 15.1191 14.543 13.7109 14.543H12.8633V13.3125H13.7109C14.832 13.3125 15.625 12.6836 15.625 11.7402C15.625 10.8379 14.9551 10.2227 13.9023 10.2227C12.9043 10.2227 12.0293 10.7695 11.9883 11.6719H10.5391C10.5801 10.0586 12.0703 8.96484 13.916 8.96484C15.8574 8.96484 17.0879 10.1953 17.0742 11.6582C17.0879 12.7793 16.3906 13.5996 15.3242 13.8594V13.9277C16.6777 14.1191 17.457 15.0215 17.457 16.2793C17.457 17.9336 15.9395 19.1367 13.8887 19.1367Z" fill="#2E72B1"/>
</svg>
