<svg width="209" height="50" viewBox="0 0 209 50" fill="none" xmlns="http://www.w3.org/2000/svg">
<path d="M54.4663 13.9484H58.0789L65.3041 26.1092H65.6094L72.8347 13.9484H76.4473L67.0341 29.2639V40H63.8795V29.2639L54.4663 13.9484ZM101.284 26.9742C101.284 29.7218 100.788 32.0963 99.7958 34.0977C98.8036 36.099 97.4425 37.6425 95.7125 38.728C93.9825 39.8134 92.0066 40.3562 89.7847 40.3562C87.5629 40.3562 85.587 39.8134 83.857 38.728C82.127 37.6425 80.7659 36.099 79.7737 34.0977C78.7815 32.0963 78.2854 29.7218 78.2854 26.9742C78.2854 24.2266 78.7815 21.8521 79.7737 19.8507C80.7659 17.8494 82.127 16.306 83.857 15.2205C85.587 14.135 87.5629 13.5923 89.7847 13.5923C92.0066 13.5923 93.9825 14.135 95.7125 15.2205C97.4425 16.306 98.8036 17.8494 99.7958 19.8507C100.788 21.8521 101.284 24.2266 101.284 26.9742ZM98.2311 26.9742C98.2311 24.7185 97.8538 22.8146 97.099 21.2627C96.3527 19.7108 95.3393 18.5363 94.0588 17.7391C92.7868 16.942 91.3621 16.5434 89.7847 16.5434C88.2074 16.5434 86.7785 16.942 85.4979 17.7391C84.2259 18.5363 83.2125 19.7108 82.4577 21.2627C81.7115 22.8146 81.3383 24.7185 81.3383 26.9742C81.3383 29.23 81.7115 31.1338 82.4577 32.6857C83.2125 34.2376 84.2259 35.4121 85.4979 36.2093C86.7785 37.0064 88.2074 37.405 89.7847 37.405C91.3621 37.405 92.7868 37.0064 94.0588 36.2093C95.3393 35.4121 96.3527 34.2376 97.099 32.6857C97.8538 31.1338 98.2311 29.23 98.2311 26.9742ZM123.685 13.9484H126.84V31.1974C126.84 32.9783 126.42 34.5684 125.58 35.9676C124.749 37.3584 123.575 38.4566 122.057 39.2622C120.539 40.0594 118.758 40.4579 116.714 40.4579C114.67 40.4579 112.889 40.0594 111.371 39.2622C109.853 38.4566 108.675 37.3584 107.835 35.9676C107.004 34.5684 106.588 32.9783 106.588 31.1974V13.9484H109.743V30.943C109.743 32.2151 110.023 33.3472 110.583 34.3394C111.142 35.3231 111.94 36.0991 112.974 36.6672C114.017 37.2269 115.264 37.5068 116.714 37.5068C118.164 37.5068 119.411 37.2269 120.454 36.6672C121.497 36.0991 122.294 35.3231 122.845 34.3394C123.405 33.3472 123.685 32.2151 123.685 30.943V13.9484ZM153.797 13.9484V40H150.744L136.548 19.5455H136.294V40H133.139V13.9484H136.192L150.439 34.4539H150.694V13.9484H153.797ZM177.919 22.0896C177.639 21.233 177.27 20.4656 176.812 19.7871C176.362 19.1002 175.824 18.5151 175.196 18.0317C174.577 17.5483 173.874 17.1794 173.085 16.925C172.296 16.6706 171.431 16.5434 170.49 16.5434C168.946 16.5434 167.543 16.942 166.279 17.7391C165.016 18.5363 164.011 19.7108 163.265 21.2627C162.518 22.8146 162.145 24.7185 162.145 26.9742C162.145 29.23 162.523 31.1338 163.277 32.6857C164.032 34.2376 165.054 35.4121 166.343 36.2093C167.632 37.0064 169.082 37.405 170.693 37.405C172.186 37.405 173.5 37.087 174.637 36.451C175.782 35.8065 176.672 34.8991 177.308 33.7288C177.953 32.55 178.275 31.1635 178.275 29.5692L179.242 29.7727H171.406V26.9742H181.328V29.7727C181.328 31.9182 180.87 33.7839 179.954 35.3697C179.047 36.9556 177.791 38.1852 176.189 39.0587C174.594 39.9237 172.763 40.3562 170.693 40.3562C168.387 40.3562 166.36 39.8134 164.613 38.728C162.875 37.6425 161.518 36.099 160.542 34.0977C159.576 32.0963 159.092 29.7218 159.092 26.9742C159.092 24.9135 159.368 23.0605 159.919 21.4154C160.479 19.7617 161.268 18.354 162.285 17.1922C163.303 16.0304 164.507 15.1399 165.898 14.5209C167.289 13.9018 168.819 13.5923 170.49 13.5923C171.864 13.5923 173.144 13.8 174.331 14.2156C175.527 14.6226 176.591 15.2035 177.524 15.9583C178.466 16.7045 179.25 17.5992 179.878 18.6423C180.505 19.6769 180.938 20.826 181.175 22.0896H177.919Z" fill="black"/>
<path d="M206.489 29.5056L187.716 39.0672V35.3358L202.116 28.3979L202 28.6311V28.048L202.116 28.2812L187.716 21.3433V17.6119L206.489 27.1735V29.5056Z" fill="#1384EE"/>
<path d="M55.007 36.3396V39.4402L30.5836 30.4722V27.4193L55.007 18.4514V21.552L34.4475 28.8504V29.0412L55.007 36.3396ZM45.4666 35.1947V22.6969H48.0902V35.1947H45.4666Z" fill="#1384EE"/>
<path d="M11.194 39.4775H3.15468V13.426H11.5502C14.0773 13.426 16.2398 13.9475 18.0377 14.9906C19.8355 16.0252 21.2135 17.5135 22.1718 19.4555C23.1301 21.389 23.6092 23.7041 23.6092 26.4009C23.6092 29.1146 23.1258 31.4509 22.1591 33.4099C21.1923 35.3603 19.7846 36.8614 17.9359 37.9129C16.0872 38.956 13.8399 39.4775 11.194 39.4775ZM6.30936 36.679H10.9905C13.1445 36.679 14.9296 36.2635 16.3458 35.4324C17.762 34.6014 18.8178 33.4183 19.5132 31.8834C20.2086 30.3485 20.5563 28.521 20.5563 26.4009C20.5563 24.2978 20.2129 22.4872 19.526 20.9692C18.839 19.4428 17.8129 18.2725 16.4476 17.4584C15.0823 16.6358 13.382 16.2245 11.3467 16.2245H6.30936V36.679Z" fill="black"/>
</svg>
